# xmcd
# 
# Track frame offsets:
#     150
#     41188
#     93702
#     128915
#     179033
# 
# Disc length: 2691
# 
# Revision: 2
# Processed by: cddbd v1.5.2PL0 Copyright (c) Steve Scherf et al.
# Submitted via: BonkEnc v1.0.15
# 
DISCID=490a8105
DTITLE=Keith Jarrett - The Impulse Years - Backhand
DYEAR=1997
DGENRE=
TTITLE0=InFlight
TTITLE1=Kuum
TTITLE2=Vapallia
TTITLE3=Backhand
TTITLE4=Victoria
EXTD=
EXTT0=
EXTT1=
EXTT2=
EXTT3=
EXTT4=
PLAYORDER=
